<svg width="32" height="32" class="bg-tertiary-dark" viewBox="0 0 32 32" fill="none" xmlns="http://www.w3.org/2000/svg"><path d="M9.33333 20C10.0697 20 10.6667 19.4031 10.6667 18.6667C10.6667 17.9303 10.0697 17.3334 9.33333 17.3334C8.59695 17.3334 8 17.9303 8 18.6667C8 19.4031 8.59695 20 9.33333 20Z" fill="#190694" stroke="#190694" stroke-width="2" stroke-linecap="round" stroke-linejoin="round"/><path d="M2.66666 12V7.46663C2.66666 7.0248 3.02484 6.66663 3.46666 6.66663H28.5333C28.9752 6.66663 29.3333 7.0248 29.3333 7.46663V12M2.66666 12V24.5333C2.66666 24.9751 3.02484 25.3333 3.46666 25.3333H28.5333C28.9752 25.3333 29.3333 24.9751 29.3333 24.5333V12M2.66666 12H29.3333" stroke="#190694" stroke-width="2" stroke-linecap="round" stroke-linejoin="round"/></svg>