<svg width="151" height="41" viewBox="0 0 151 41" fill="none" xmlns="http://www.w3.org/2000/svg" class=""><path d="M146.5 23.3203C149.016 23.3203 151 25.3453 151 27.8203C151 30.2953 149.016 32.3203 146.5 32.3203C143.984 32.3203 142 30.2953 142 27.8203C142 25.3453 143.984 23.3203 146.5 23.3203ZM146.5 31.5226C148.566 31.5226 150.161 29.8453 150.161 27.8203C150.161 25.7953 148.566 24.118 146.5 24.118C144.434 24.118 142.859 25.7953 142.859 27.8203C142.859 29.8453 144.434 31.5226 146.5 31.5226ZM148.3 26.7158C148.3 27.493 147.707 28.0044 146.93 28.0862L148.566 30.0908H147.482L145.764 27.943V30.0908H144.884V25.2635H146.705C147.584 25.2635 148.3 25.8567 148.3 26.7158ZM146.766 26.0612H145.764V27.3499H146.766C147.134 27.3499 147.441 27.0839 147.441 26.7158C147.441 26.3476 147.134 26.0612 146.766 26.0612Z" fill="white"/><path d="M25.6372 33.7866L23.3966 31.2002C21.0986 32.3596 18.6713 32.9393 16.1148 32.9393C13.1848 32.9393 10.4847 32.211 8.01432 30.7543C5.54395 29.2976 3.59064 27.3206 2.15439 24.8234C0.718129 22.3262 0 19.5763 0 16.5737C0 13.5711 0.718129 10.8212 2.15439 8.32395C3.59064 5.82674 5.54395 3.84978 8.01432 2.39307C10.4847 0.936361 13.1848 0.208008 16.1148 0.208008C19.0448 0.208008 21.7449 0.936361 24.2153 2.39307C26.6857 3.84978 28.639 5.82674 30.0752 8.32395C31.5115 10.8212 32.2296 13.5711 32.2296 16.5737C32.2296 18.8331 31.8131 20.9735 30.9801 22.9951C30.147 24.9869 28.9693 26.726 27.4469 28.2125L32.2727 33.7866H25.6372ZM16.1148 27.8111C17.4936 27.8111 18.7575 27.5882 19.9065 27.1422L13.7881 20.0965H20.4236L24.086 24.3329C25.0052 23.3221 25.709 22.1627 26.1973 20.8546C26.7144 19.5168 26.9729 18.0898 26.9729 16.5737C26.9729 14.4927 26.499 12.59 25.551 10.8658C24.6031 9.14149 23.2961 7.78883 21.63 6.80778C19.964 5.82674 18.1256 5.33621 16.1148 5.33621C14.104 5.33621 12.2656 5.82674 10.5996 6.80778C8.96225 7.78883 7.65525 9.14149 6.6786 10.8658C5.73067 12.59 5.2567 14.4927 5.2567 16.5737C5.2567 18.6547 5.73067 20.5573 6.6786 22.2816C7.65525 24.0059 8.96225 25.3585 10.5996 26.3396C12.2656 27.3206 14.104 27.8111 16.1148 27.8111Z" fill="white"/><path d="M56.5722 10.3752V32.1812H51.8756V29.9962C50.9277 30.9178 49.8648 31.6313 48.6871 32.1367C47.5381 32.6123 46.3173 32.8501 45.0247 32.8501C43.0426 32.8501 41.2042 32.3299 39.5094 31.2894C37.8146 30.2489 36.4646 28.8516 35.4592 27.0976C34.4825 25.3139 33.9942 23.3667 33.9942 21.2559C33.9942 19.1749 34.4825 17.2574 35.4592 15.5034C36.4646 13.7197 37.8146 12.3076 39.5094 11.2671C41.2042 10.2266 43.0426 9.70633 45.0247 9.70633C46.3173 9.70633 47.5381 9.95903 48.6871 10.4644C49.8648 10.9401 50.9277 11.6387 51.8756 12.5603V10.3752H56.5722ZM45.4555 27.9895C46.6333 27.9895 47.7105 27.6922 48.6871 27.0976C49.6638 26.5031 50.4393 25.7004 51.0138 24.6896C51.5883 23.6491 51.8756 22.5046 51.8756 21.2559C51.8756 20.0073 51.5883 18.8776 51.0138 17.8669C50.4393 16.8264 49.6638 16.0088 48.6871 15.4142C47.7105 14.8197 46.6333 14.5224 45.4555 14.5224C44.2778 14.5224 43.2006 14.8197 42.224 15.4142C41.2473 16.0088 40.4717 16.8264 39.8972 17.8669C39.3227 18.8776 39.0355 20.0073 39.0355 21.2559C39.0355 22.5046 39.3227 23.6491 39.8972 24.6896C40.4717 25.7004 41.2473 26.5031 42.224 27.0976C43.2006 27.6922 44.2778 27.9895 45.4555 27.9895Z" fill="white"/><path d="M71.5074 9.70633C73.4895 9.70633 75.3279 10.2266 77.0227 11.2671C78.7175 12.3076 80.0532 13.7197 81.0298 15.5034C82.0352 17.2574 82.5379 19.1749 82.5379 21.2559C82.5379 23.3667 82.0352 25.3139 81.0298 27.0976C80.0532 28.8516 78.7175 30.2489 77.0227 31.2894C75.3279 32.3299 73.4895 32.8501 71.5074 32.8501C70.301 32.8501 69.1376 32.6272 68.0173 32.1812C66.8971 31.7353 65.8917 31.111 65.0012 30.3083V40.208H59.9599V10.3752H64.6565V12.5603C65.6044 11.6387 66.6529 10.9401 67.8019 10.4644C68.9796 9.95903 70.2148 9.70633 71.5074 9.70633ZM71.0766 27.9895C72.2543 27.9895 73.3315 27.6922 74.3081 27.0976C75.2848 26.5031 76.0604 25.7004 76.6349 24.6896C77.2094 23.6491 77.4966 22.5046 77.4966 21.2559C77.4966 20.0073 77.2094 18.8776 76.6349 17.8669C76.0604 16.8264 75.2848 16.0088 74.3081 15.4142C73.3315 14.8197 72.2543 14.5224 71.0766 14.5224C69.8988 14.5224 68.8216 14.8197 67.845 15.4142C66.8683 16.0088 66.0928 16.8264 65.5183 17.8669C64.9437 18.8776 64.6565 20.0073 64.6565 21.2559C64.6565 22.5046 64.9437 23.6491 65.5183 24.6896C66.0928 25.7004 66.8683 26.5031 67.845 27.0976C68.8216 27.6922 69.8988 27.9895 71.0766 27.9895Z" fill="white"/><path d="M85.4625 10.3752H90.5037V32.1812H85.4625V10.3752ZM88.0047 6.62941C87.1429 6.62941 86.3961 6.33212 85.7641 5.73755C85.1609 5.11325 84.8593 4.35516 84.8593 3.4633C84.8593 2.57144 85.1609 1.82822 85.7641 1.23365C86.3961 0.609345 87.1429 0.297193 88.0047 0.297193C88.8664 0.297193 89.5989 0.609345 90.2021 1.23365C90.8341 1.82822 91.1501 2.57144 91.1501 3.4633C91.1501 4.35516 90.8341 5.11325 90.2021 5.73755C89.5989 6.33212 88.8664 6.62941 88.0047 6.62941Z" fill="white"/><path d="M98.9281 15.0575V24.6004C98.9281 25.522 99.1579 26.2206 99.6175 26.6963C100.106 27.172 100.795 27.4098 101.686 27.4098H104.012V32.1812H101.556C100.034 32.1812 98.6983 31.8691 97.5493 31.2448C96.4003 30.5908 95.5098 29.7138 94.8778 28.6138C94.2459 27.4841 93.9299 26.2206 93.9299 24.8234V15.0575V10.3752V1.01068H98.9281V10.3752H104.012V15.0575H98.9281Z" fill="white"/><path d="M127.571 10.3752V32.1812H122.874V29.9962C121.926 30.9178 120.864 31.6313 119.686 32.1367C118.537 32.6123 117.316 32.8501 116.023 32.8501C114.041 32.8501 112.203 32.3299 110.508 31.2894C108.813 30.2489 107.463 28.8516 106.458 27.0976C105.481 25.3139 104.993 23.3667 104.993 21.2559C104.993 19.1749 105.481 17.2574 106.458 15.5034C107.463 13.7197 108.813 12.3076 110.508 11.2671C112.203 10.2266 114.041 9.70633 116.023 9.70633C117.316 9.70633 118.537 9.95903 119.686 10.4644C120.864 10.9401 121.926 11.6387 122.874 12.5603V10.3752H127.571ZM116.454 27.9895C117.632 27.9895 118.709 27.6922 119.686 27.0976C120.663 26.5031 121.438 25.7004 122.013 24.6896C122.587 23.6491 122.874 22.5046 122.874 21.2559C122.874 20.0073 122.587 18.8776 122.013 17.8669C121.438 16.8264 120.663 16.0088 119.686 15.4142C118.709 14.8197 117.632 14.5224 116.454 14.5224C115.277 14.5224 114.199 14.8197 113.223 15.4142C112.246 16.0088 111.471 16.8264 110.896 17.8669C110.322 18.8776 110.034 20.0073 110.034 21.2559C110.034 22.5046 110.322 23.6491 110.896 24.6896C111.471 25.7004 112.246 26.5031 113.223 27.0976C114.199 27.6922 115.277 27.9895 116.454 27.9895Z" fill="white"/><path d="M130.959 1.00789H136V32.1812H130.959V1.00789Z" fill="white"/></svg>