<svg width="24" height="24" class="" viewBox="0 0 24 24" fill="none" xmlns="http://www.w3.org/2000/svg"><path fill-rule="evenodd" clip-rule="evenodd" d="M12 2V12H22C22 12.6751 21.9317 13.345 21.798 14C21.5399 15.264 21.0385 16.4725 20.3147 17.5557C19.2159 19.2002 17.6541 20.4819 15.8268 21.2388C13.9996 21.9957 11.9889 22.1937 10.0491 21.8079C8.10929 21.422 6.32746 20.4696 4.92894 19.0711C3.53041 17.6725 2.578 15.8907 2.19215 13.9509C1.8063 12.0111 2.00433 10.0004 2.76121 8.17317C3.51809 6.3459 4.79981 4.78412 6.4443 3.6853C7.52748 2.96155 8.73601 2.46006 10 2.20204C10.655 2.06833 11.3249 2 12 2ZM10 14H19.746C19.5224 14.866 19.1539 15.693 18.6518 16.4446C17.7727 17.7602 16.5233 18.7855 15.0615 19.391C13.5997 19.9965 11.9911 20.155 10.4393 19.8463C8.88743 19.5376 7.46197 18.7757 6.34315 17.6569C5.22433 16.538 4.4624 15.1126 4.15372 13.5607C3.84504 12.0089 4.00347 10.4003 4.60897 8.93853C5.21447 7.47672 6.23985 6.22729 7.55544 5.34824C8.30702 4.84605 9.13403 4.47763 10 4.25403V14Z" fill="#190694"/><path fill-rule="evenodd" clip-rule="evenodd" d="M21.391 6.93853C21.5343 7.2844 21.6528 7.63912 21.746 8C21.9143 8.65185 22 9.32379 22 10L14 10V2C14.6762 2 15.3482 2.08573 16 2.25403C16.3609 2.34721 16.7156 2.4657 17.0615 2.60896C18.0321 3.011 18.914 3.60028 19.6569 4.34315C20.3997 5.08601 20.989 5.96793 21.391 6.93853ZM16 4.34315C16.0996 4.37835 16.1983 4.41622 16.2961 4.45672C17.0241 4.75825 17.6855 5.20021 18.2426 5.75736C18.7998 6.31451 19.2418 6.97595 19.5433 7.7039C19.5838 7.80169 19.6217 7.90043 19.6569 8L16 8V4.34315Z" fill="#190694"/></svg>