<svg width="32" height="33" class="" viewBox="0 0 32 33" fill="none" xmlns="http://www.w3.org/2000/svg"><path d="M21.8331 4.54113C23.3789 4.54575 24.8601 5.16186 25.9531 6.2549C27.0462 7.34794 27.6623 8.8291 27.6669 10.3749V22.0411C27.6623 23.5869 27.0462 25.0681 25.9531 26.1611C24.8601 27.2542 23.3789 27.8703 21.8331 27.8749H10.1669C8.62109 27.8703 7.13993 27.2542 6.04689 26.1611C4.95385 25.0681 4.33774 23.5869 4.33313 22.0411V10.3749C4.33774 8.8291 4.95385 7.34794 6.04689 6.2549C7.13993 5.16186 8.62109 4.54575 10.1669 4.54113H21.8331ZM21.8331 2.20801H10.1669C5.675 2.20801 2 5.88301 2 10.3749V22.0411C2 26.533 5.675 30.208 10.1669 30.208H21.8331C26.325 30.208 30 26.533 30 22.0411V10.3749C30 5.88301 26.325 2.20801 21.8331 2.20801Z" fill="#FFFFFF"/><path d="M23.5831 10.375C23.237 10.375 22.8987 10.2724 22.6109 10.0801C22.3231 9.88778 22.0988 9.61447 21.9663 9.2947C21.8339 8.97493 21.7992 8.62306 21.8668 8.28359C21.9343 7.94413 22.1009 7.63231 22.3457 7.38756C22.5904 7.14282 22.9023 6.97615 23.2417 6.90863C23.5812 6.8411 23.9331 6.87576 24.2528 7.00821C24.5726 7.14066 24.8459 7.36497 25.0382 7.65275C25.2305 7.94054 25.3331 8.27888 25.3331 8.625C25.3336 8.85495 25.2887 9.08274 25.2009 9.29528C25.1132 9.50782 24.9843 9.70094 24.8217 9.86354C24.6591 10.0261 24.466 10.155 24.2534 10.2428C24.0409 10.3306 23.8131 10.3755 23.5831 10.375ZM16 11.5413C16.923 11.5413 17.8253 11.815 18.5928 12.3278C19.3602 12.8406 19.9584 13.5694 20.3116 14.4222C20.6649 15.275 20.7573 16.2133 20.5772 17.1186C20.3971 18.0239 19.9527 18.8554 19.3 19.5081C18.6473 20.1608 17.8157 20.6053 16.9105 20.7853C16.0052 20.9654 15.0668 20.873 14.2141 20.5198C13.3613 20.1665 12.6324 19.5684 12.1196 18.8009C11.6068 18.0334 11.3331 17.1311 11.3331 16.2081C11.3345 14.9708 11.8266 13.7845 12.7015 12.9096C13.5764 12.0347 14.7627 11.5426 16 11.5413ZM16 9.20813C14.6155 9.20813 13.2622 9.61867 12.111 10.3878C10.9599 11.157 10.0627 12.2503 9.53285 13.5293C9.00303 14.8084 8.86441 16.2159 9.13451 17.5738C9.4046 18.9316 10.0713 20.1789 11.0503 21.1579C12.0292 22.1368 13.2765 22.8035 14.6344 23.0736C15.9922 23.3437 17.3997 23.2051 18.6788 22.6753C19.9579 22.1455 21.0511 21.2483 21.8203 20.0971C22.5895 18.946 23 17.5926 23 16.2081C23 14.3516 22.2625 12.5711 20.9497 11.2584C19.637 9.94562 17.8565 9.20813 16 9.20813Z" fill="#FFFFFF"/></svg>