<svg height="24" width="24" viewBox="0 0 24 24" fill="none" xmlns="http://www.w3.org/2000/svg"><path d="M11.3986 1.25096C11.6408 0.746992 12.3584 0.746992 12.6005 1.25096L15.314 6.89932C15.4112 7.10162 15.6037 7.24144 15.8261 7.27135L22.0365 8.10664C22.5906 8.18117 22.8124 8.86366 22.4079 9.24966L17.8745 13.5758C17.7122 13.7308 17.6387 13.957 17.6789 14.1778L18.8037 20.3424C18.904 20.8924 18.3235 21.3142 17.8314 21.0488L12.316 18.0742C12.1185 17.9676 11.8806 17.9676 11.6831 18.0742L6.16778 21.0488C5.67568 21.3142 5.09512 20.8924 5.19547 20.3424L6.3202 14.1778C6.36048 13.957 6.28697 13.7308 6.12461 13.5758L1.59123 9.24966C1.18674 8.86366 1.40849 8.18117 1.96262 8.10664L8.17306 7.27135C8.39548 7.24144 8.58793 7.10162 8.68511 6.89932L11.3986 1.25096Z" fill="#50B37F"/></svg>