<svg width="125" height="42" class="mx-auto" viewBox="0 0 125 42" fill="none" xmlns="http://www.w3.org/2000/svg"><path d="M9.89468 11.6695C10.1048 11.232 10.7278 11.232 10.9379 11.6695L13.2935 16.5726C13.3778 16.7482 13.5449 16.8696 13.7379 16.8955L19.129 17.6206C19.61 17.6853 19.8025 18.2777 19.4513 18.6128L15.5161 22.3682C15.3752 22.5027 15.3114 22.699 15.3463 22.8907L16.3227 28.2419C16.4098 28.7194 15.9058 29.0855 15.4786 28.8551L10.691 26.273C10.5196 26.1805 10.3131 26.1805 10.1416 26.273L5.35399 28.8551C4.92681 29.0855 4.42286 28.7194 4.50997 28.2419L5.48629 22.8907C5.52126 22.699 5.45745 22.5027 5.31651 22.3682L1.38128 18.6128C1.03016 18.2777 1.22265 17.6853 1.70366 17.6206L7.09468 16.8955C7.28776 16.8696 7.45481 16.7482 7.53917 16.5726L9.89468 11.6695Z" fill="#E1F7ED"/><path d="M35.9337 11.6695C36.1439 11.232 36.7668 11.232 36.977 11.6695L39.3325 16.5726C39.4169 16.7482 39.5839 16.8696 39.777 16.8955L45.168 17.6206C45.649 17.6853 45.8415 18.2777 45.4904 18.6128L41.5552 22.3682C41.4142 22.5027 41.3504 22.699 41.3854 22.8907L42.3617 28.2419C42.4488 28.7194 41.9449 29.0855 41.5177 28.8551L36.7301 26.273C36.5586 26.1805 36.3521 26.1805 36.1807 26.273L31.393 28.8551C30.9659 29.0855 30.4619 28.7194 30.549 28.2419L31.5254 22.8907C31.5603 22.699 31.4965 22.5027 31.3556 22.3682L27.4203 18.6128C27.0692 18.2777 27.2617 17.6853 27.7427 17.6206L33.1337 16.8955C33.3268 16.8696 33.4939 16.7482 33.5782 16.5726L35.9337 11.6695Z" fill="#E1F7ED"/><path d="M61.9767 11.6695C62.1869 11.232 62.8098 11.232 63.02 11.6695L65.3755 16.5726C65.4598 16.7482 65.6269 16.8696 65.82 16.8955L71.211 17.6206C71.692 17.6853 71.8845 18.2777 71.5334 18.6128L67.5981 22.3682C67.4572 22.5027 67.3934 22.699 67.4284 22.8907L68.4047 28.2419C68.4918 28.7194 67.9878 29.0855 67.5607 28.8551L62.7731 26.273C62.6016 26.1805 62.3951 26.1805 62.2236 26.273L57.436 28.8551C57.0088 29.0855 56.5049 28.7194 56.592 28.2419L57.5683 22.8907C57.6033 22.699 57.5395 22.5027 57.3985 22.3682L53.4633 18.6128C53.1122 18.2777 53.3047 17.6853 53.7857 17.6206L59.1767 16.8955C59.3698 16.8696 59.5368 16.7482 59.6212 16.5726L61.9767 11.6695Z" fill="#E1F7ED"/><path d="M88.0158 11.6695C88.2259 11.232 88.8489 11.232 89.059 11.6695L91.4145 16.5726C91.4989 16.7482 91.666 16.8696 91.859 16.8955L97.2501 17.6206C97.7311 17.6853 97.9236 18.2777 97.5724 18.6128L93.6372 22.3682C93.4963 22.5027 93.4325 22.699 93.4674 22.8907L94.4438 28.2419C94.5309 28.7194 94.0269 29.0855 93.5997 28.8551L88.8121 26.273C88.6407 26.1805 88.4342 26.1805 88.2627 26.273L83.4751 28.8551C83.0479 29.0855 82.5439 28.7194 82.6311 28.2419L83.6074 22.8907C83.6424 22.699 83.5785 22.5027 83.4376 22.3682L79.5024 18.6128C79.1513 18.2777 79.3437 17.6853 79.8248 17.6206L85.2158 16.8955C85.4089 16.8696 85.5759 16.7482 85.6603 16.5726L88.0158 11.6695Z" fill="#E1F7ED"/><path d="M114.059 11.6695C114.269 11.232 114.892 11.232 115.102 11.6695L117.458 16.5726C117.542 16.7482 117.709 16.8696 117.902 16.8955L123.293 17.6206C123.774 17.6853 123.967 18.2777 123.615 18.6128L119.68 22.3682C119.539 22.5027 119.475 22.699 119.51 22.8907L120.487 28.2419C120.574 28.7194 120.07 29.0855 119.643 28.8551L114.855 26.273C114.684 26.1805 114.477 26.1805 114.306 26.273L109.518 28.8551C109.091 29.0855 108.587 28.7194 108.674 28.2419L109.65 22.8907C109.685 22.699 109.622 22.5027 109.481 22.3682L105.545 18.6128C105.194 18.2777 105.387 17.6853 105.868 17.6206L111.259 16.8955C111.452 16.8696 111.619 16.7482 111.703 16.5726L114.059 11.6695Z" fill="#E1F7ED"/></svg>