<svg width="51" height="42" viewBox="0 0 51 42" class="mx-auto" fill="none" xmlns="http://www.w3.org/2000/svg"><path d="M43.9535 13.9357C42.5029 13.5083 40.948 14.1288 40.1917 15.438L36.6509 21.5603C36.3736 22.0387 35.6574 21.955 35.5002 21.4227L30.5269 4.44925C30.2257 3.42995 29.1575 2.80103 28.0981 3.08747C27.0689 3.36204 26.4692 4.44183 26.6804 5.48498L29.0892 17.3731C29.198 17.909 28.4294 18.124 28.2423 17.6125L23.313 4.05998C22.9418 3.04674 21.8151 2.49544 20.7722 2.86674C19.7622 3.22699 19.2507 4.35944 19.5577 5.38933L23.3374 18.0459C23.5004 18.5889 22.7322 18.8929 22.4787 18.3856L17.0756 7.57694C16.6173 6.66841 15.5299 6.23535 14.5646 6.61472C13.5418 7.0186 13.0382 8.17415 13.4421 9.19703L18.4942 22.0211C18.6464 22.4097 18.101 22.6817 17.8841 22.3214L13.1347 14.4437C12.6198 13.5866 11.5297 13.2328 10.5976 13.6605C9.59735 14.1184 9.15686 15.3014 9.61754 16.3025L17.3931 33.2394C18.8622 36.4402 21.6435 38.8483 25.0219 39.8438C31.476 41.7458 38.2505 38.0552 40.1524 31.6011L44.8659 15.6063C45.0729 14.8939 44.6652 14.1455 43.9535 13.9357Z" fill="#E1F7ED"/></svg>