<svg width="81" height="42" viewBox="0 0 81 42" fill="none" class="mx-auto" xmlns="http://www.w3.org/2000/svg"><path fill-rule="evenodd" clip-rule="evenodd" d="M9.45193 6.16052L9.99198 4.42477C9.11615 3.04904 10.1199 1.81419 10.8806 0.878308C11.1512 0.545315 11.3911 0.250172 11.5046 0C11.4571 0.265194 11.4806 0.678569 11.5075 1.15188C11.585 2.51763 11.6909 4.38241 10.2014 4.6259C10.0471 5.12183 9.89277 5.61775 9.86246 6.15225L9.53734 6.32307L9.45193 6.16052ZM8.76724 9.48091L8.76725 9.48085C8.84992 8.99664 8.93258 8.51242 9.0056 8.0592L9.16816 7.97379C9.29214 8.01236 9.37755 8.17491 9.37755 8.17491C9.23151 9.08136 9.08546 9.9878 9.0634 10.9328C8.98678 10.909 8.94277 10.9472 8.88196 11.0001C8.84438 11.0328 8.80038 11.071 8.73829 11.1036C8.73829 11.1036 8.65288 10.9411 8.5289 10.9025C8.60191 10.4493 8.68457 9.96518 8.76722 9.48102L8.76724 9.48091ZM8.28531 13.4118C8.34042 14.1089 8.35695 14.9299 8.37349 15.751C8.43548 15.7703 8.48783 15.8206 8.54018 15.8708C8.59253 15.9211 8.64488 15.9714 8.70687 15.9907C8.80733 15.9379 8.86044 15.8704 8.93383 15.7771L8.93383 15.7771C8.97919 15.7194 9.03229 15.6519 9.10911 15.5719C9.08156 15.2234 9.06365 14.8439 9.04573 14.4643L9.04573 14.4643L9.04573 14.4642C9.02782 14.0847 9.00991 13.7052 8.98236 13.3567C8.85837 13.3182 8.73439 13.2796 8.77296 13.1556L8.28531 13.4118ZM9.14067 21.1564C8.87618 20.2582 8.6971 19.5226 8.68057 18.7015C8.71915 18.5776 8.8817 18.4922 9.04426 18.4067C9.12967 18.5693 9.37763 18.6464 9.50161 18.685C9.59115 19.0528 9.6497 19.411 9.70824 19.7692L9.70824 19.7692C9.76679 20.1274 9.82533 20.4855 9.91488 20.8533L9.8763 20.9773C9.67517 21.1867 9.6366 21.3107 9.59803 21.4347C9.53604 21.4154 9.45269 21.3555 9.36935 21.2955C9.286 21.2356 9.20266 21.1757 9.14067 21.1564ZM10.1527 24.4628C10.4558 25.237 10.7589 26.0112 11.1005 26.6614L11.5964 26.8157L11.7507 26.3198L11.7893 26.1958C11.4477 25.5456 11.23 24.9339 11.0509 24.1983C10.7644 24.2451 10.6404 24.2066 10.5164 24.168C10.3539 24.2534 10.1913 24.3388 10.1527 24.4628ZM14.5895 32.5046C14.2093 31.9784 13.8601 31.4618 13.5109 30.9452C13.1617 30.4286 12.8124 29.912 12.4322 29.3858C12.5327 29.333 12.5858 29.2655 12.6592 29.1722L12.6592 29.1721C12.7046 29.1145 12.7577 29.047 12.8345 28.967C12.9585 29.0056 13.0825 29.0441 13.245 28.9587C13.8814 29.9726 14.5179 30.9865 15.1929 31.8765L15.1543 32.0005C15.1383 32.0518 15.1436 32.1098 15.1498 32.1777C15.1586 32.2738 15.1692 32.3897 15.124 32.535C15 32.4964 14.7521 32.4192 14.5895 32.5046ZM19.4948 37.4987C19.5685 37.5896 19.6422 37.6805 19.7469 37.7811C19.8563 37.7632 19.9477 37.7397 20.0257 37.7196C20.152 37.6871 20.2433 37.6636 20.32 37.6874C20.3074 37.6106 20.2921 37.5428 20.2779 37.4798L20.2779 37.4797C20.239 37.3076 20.2084 37.1719 20.2649 36.9903L20.1795 36.8278C20.1281 36.8118 20.0834 36.7746 20.0309 36.7309C19.9568 36.6692 19.8674 36.5947 19.7221 36.5495C18.9699 35.9076 18.1324 35.1031 17.4188 34.3372C17.2562 34.4226 17.0937 34.508 16.8457 34.4308L16.6914 34.9268L16.6915 34.9268C17.529 35.7313 18.3666 36.5358 19.2427 37.2163C19.3474 37.3168 19.4211 37.4078 19.4948 37.4987ZM25.1068 41.0822C24.1535 40.6497 23.2388 40.0931 22.3241 39.5366C22.3434 39.4746 22.3413 39.372 22.3392 39.2693C22.3372 39.1667 22.3351 39.0641 22.3544 39.0021L22.8421 38.7458L22.8421 38.7459C23.6328 39.2638 24.4235 39.7818 25.3768 40.2144C25.4027 40.2636 25.425 40.3241 25.4493 40.3903L25.4494 40.3903C25.5055 40.5426 25.5724 40.7243 25.7184 40.8646C25.4319 40.9114 25.2693 40.9968 25.1068 41.0822ZM13.1754 7.21375C13.5857 6.91326 13.9467 6.64895 14.2258 6.55688C13.936 6.57346 13.5203 6.48572 13.0498 6.38641C11.7224 6.1062 9.9588 5.73391 9.35461 7.35313C9.49823 5.62606 7.79691 5.24873 6.4994 4.96097L6.49939 4.96097C6.00439 4.85118 5.56815 4.75443 5.31556 4.60075C5.53759 4.81401 5.76039 5.20909 6.01035 5.65231C6.7033 6.88105 7.60496 8.47985 9.27746 7.60109C10.4895 9.1806 12.0262 8.05529 13.1754 7.21375ZM22.8329 32.2166C22.8498 32.5744 22.9835 33.0667 23.1346 33.6236C23.6248 35.4292 24.2991 37.9129 21.7721 38.6857C22.1027 41.2515 19.5806 41.5357 17.7276 41.7446C17.1252 41.8125 16.5935 41.8724 16.2535 42.0002C16.5419 41.7664 16.8517 41.3112 17.2035 40.7943C18.1826 39.3557 19.4872 37.4387 21.5628 38.4846C19.8377 36.9462 21.1131 35.0131 22.0741 33.5565L22.0742 33.5565C22.4178 33.0357 22.7212 32.5758 22.8329 32.2166ZM18.747 29.9186C18.746 29.3052 18.7451 28.7559 18.8575 28.3946C18.6579 28.6908 18.2654 29.0307 17.8248 29.4122C16.5929 30.479 14.9853 31.8711 16.1684 33.5413C14.5908 32.2599 12.9797 33.6249 11.7327 34.6814C11.2636 35.0789 10.846 35.4327 10.5011 35.5856C10.8826 35.5232 11.4329 35.6002 12.0462 35.6859H12.0462H12.0463H12.0463H12.0463C13.7362 35.9222 15.9046 36.2254 16.3393 33.8664C18.7534 33.8178 18.7498 31.6209 18.747 29.9186ZM16.004 23.5645C15.8421 23.8618 15.7325 24.3619 15.6074 24.9325C15.2433 26.5941 14.7482 28.8534 12.4471 28.4412C11.5024 30.5231 9.47869 29.8191 7.87682 29.2618C7.27826 29.0536 6.7386 28.8659 6.33615 28.8516C6.6878 28.7783 7.15444 28.5248 7.68244 28.238C9.11944 27.4573 11.011 26.4296 12.2763 28.1161C11.4989 26.2102 13.3353 25.188 14.7398 24.4062C15.2865 24.1019 15.7678 23.834 16.004 23.5645ZM12.449 11.5217L12.449 11.5216C12.7949 11.1434 13.1036 10.8059 13.3681 10.6398C13.0664 10.7393 12.5897 10.7294 12.0546 10.7183C10.7083 10.6902 8.99216 10.6545 8.76148 12.3342C8.60589 10.5902 6.82726 10.536 5.44989 10.494C4.94938 10.4787 4.50185 10.4651 4.20444 10.3725C4.41165 10.5335 4.65847 10.836 4.94241 11.1841C5.85904 12.3078 7.16261 13.9059 8.76974 12.7447C10.191 13.9909 11.4694 12.593 12.449 11.5217ZM14.6511 19.1982C14.4215 19.481 14.2183 19.9751 13.9894 20.5319C13.3395 22.1126 12.4817 24.1991 10.2181 23.3943C8.8599 25.443 6.82243 24.1615 5.37487 23.2511C4.91078 22.9592 4.50732 22.7054 4.20632 22.6118C4.57692 22.6155 5.10073 22.4535 5.69089 22.271C7.25935 21.7859 9.2964 21.1559 10.1712 23.1078C9.64523 20.9471 11.7398 20.2616 13.3066 19.7488C13.8736 19.5632 14.3715 19.4003 14.6511 19.1982ZM13.2158 15.8631C13.5581 15.3636 13.8622 14.92 14.1457 14.6902C13.8009 14.8431 13.2517 14.9019 12.6361 14.9678C10.9989 15.1431 8.89134 15.3688 8.90533 17.5473C8.45474 15.3383 6.12922 15.6148 4.46231 15.813C3.93793 15.8753 3.47873 15.9299 3.16357 15.8969C3.44525 16.0504 3.79307 16.3762 4.19168 16.7495C5.43836 17.9171 7.1818 19.5499 8.95217 17.8338C10.9548 19.1615 12.2404 17.2859 13.2158 15.8631Z" fill="#E1F7ED"/><path d="M30.6254 7.40234C30.0815 7.58346 29.7188 8.17302 29.7188 8.98885V20.9994V33.01C29.7188 33.8258 30.0358 34.4148 30.5797 34.5965L42.9531 20.9994L30.6254 7.40234ZM32.7553 8.0822L43.7237 20.1836L47.3949 16.1496L32.7553 8.0822ZM48.4827 16.6935L44.5396 20.9994L48.4827 25.3053L53.8764 22.3591C54.8733 21.8152 55.2812 21.5433 55.2812 20.9994C55.2812 20.4555 54.8733 20.1836 53.8764 19.6397L48.4827 16.6935ZM43.7689 21.8604L32.7553 33.9618L47.4852 25.8944L43.7689 21.8604Z" fill="#E1F7ED"/><path fill-rule="evenodd" clip-rule="evenodd" d="M71.5476 6.16052L71.0075 4.42477C71.8834 3.04904 70.8797 1.81419 70.119 0.878308C69.8483 0.545315 69.6084 0.250172 69.4949 0C69.5424 0.265194 69.5189 0.678569 69.492 1.15188C69.4145 2.51763 69.3086 4.38241 70.7981 4.6259C70.9524 5.12183 71.1067 5.61775 71.1371 6.15225L71.4622 6.32307L71.5476 6.16052ZM72.2323 9.48091L72.2323 9.48085C72.1496 8.99664 72.0669 8.51242 71.9939 8.0592L71.8314 7.97379C71.7074 8.01236 71.622 8.17491 71.622 8.17491C71.768 9.08136 71.914 9.9878 71.9361 10.9328C72.0127 10.909 72.0567 10.9472 72.1175 11.0001C72.1551 11.0328 72.1991 11.071 72.2612 11.1036C72.2612 11.1036 72.3466 10.9411 72.4706 10.9025C72.3976 10.4493 72.3149 9.96518 72.2323 9.48102L72.2323 9.48091ZM72.7142 13.4118C72.6591 14.1089 72.6426 14.9299 72.626 15.751C72.564 15.7703 72.5117 15.8206 72.4593 15.8708C72.407 15.9211 72.3546 15.9714 72.2926 15.9907C72.1922 15.9379 72.1391 15.8704 72.0657 15.7771L72.0657 15.7771C72.0203 15.7194 71.9672 15.6519 71.8904 15.5719C71.918 15.2234 71.9359 14.8439 71.9538 14.4643L71.9538 14.4643L71.9538 14.4642C71.9717 14.0847 71.9896 13.7052 72.0172 13.3567C72.1411 13.3182 72.2651 13.2796 72.2265 13.1556L72.7142 13.4118ZM71.8588 21.1564C72.1233 20.2582 72.3024 19.5226 72.3189 18.7015C72.2804 18.5776 72.1178 18.4922 71.9553 18.4067C71.8698 18.5693 71.6219 18.6464 71.4979 18.685C71.4084 19.0528 71.3498 19.411 71.2913 19.7692L71.2913 19.7692C71.2327 20.1274 71.1742 20.4855 71.0846 20.8533L71.1232 20.9773C71.3243 21.1867 71.3629 21.3107 71.4015 21.4347C71.4635 21.4154 71.5468 21.3555 71.6302 21.2955C71.7135 21.2356 71.7968 21.1757 71.8588 21.1564ZM70.8468 24.4628C70.5437 25.237 70.2406 26.0112 69.899 26.6614L69.4031 26.8157L69.2488 26.3198L69.2102 26.1958C69.5518 25.5456 69.7695 24.9339 69.9486 24.1983C70.2351 24.2451 70.3591 24.2066 70.4831 24.168C70.6456 24.2534 70.8082 24.3388 70.8468 24.4628ZM66.41 32.5046C66.7902 31.9784 67.1394 31.4618 67.4886 30.9452C67.8379 30.4286 68.1871 29.912 68.5673 29.3858C68.4668 29.333 68.4137 29.2655 68.3403 29.1722L68.3403 29.1721C68.2949 29.1145 68.2418 29.047 68.165 28.967C68.041 29.0056 67.9171 29.0441 67.7545 28.9587C67.1181 29.9726 66.4816 30.9865 65.8066 31.8765L65.8452 32.0005C65.8612 32.0518 65.8559 32.1098 65.8497 32.1777C65.8409 32.2738 65.8303 32.3897 65.8755 32.535C65.9995 32.4964 66.2474 32.4192 66.41 32.5046ZM61.5047 37.4987C61.431 37.5896 61.3573 37.6805 61.2526 37.7811C61.1432 37.7632 61.0518 37.7397 60.9738 37.7196C60.8475 37.6871 60.7562 37.6636 60.6796 37.6874C60.6921 37.6106 60.7074 37.5428 60.7216 37.4798L60.7216 37.4797C60.7605 37.3076 60.7911 37.1719 60.7346 36.9903L60.8201 36.8278C60.8714 36.8118 60.9162 36.7746 60.9686 36.7309C61.0427 36.6692 61.1322 36.5947 61.2774 36.5495C62.0296 35.9076 62.8671 35.1031 63.5807 34.3372C63.7433 34.4226 63.9058 34.508 64.1538 34.4308L64.3081 34.9268L64.308 34.9268C63.4705 35.7313 62.6329 36.5358 61.7568 37.2163C61.6521 37.3168 61.5784 37.4078 61.5047 37.4987ZM55.8927 41.0822C56.846 40.6497 57.7607 40.0931 58.6754 39.5366C58.6561 39.4746 58.6582 39.372 58.6603 39.2693C58.6623 39.1667 58.6644 39.0641 58.6451 39.0021L58.1575 38.7458L58.1574 38.7459C57.3667 39.2638 56.576 39.7818 55.6227 40.2144C55.5969 40.2636 55.5745 40.3241 55.5502 40.3903L55.5502 40.3903C55.494 40.5426 55.4271 40.7243 55.2811 40.8646C55.5676 40.9114 55.7302 40.9968 55.8927 41.0822ZM67.8241 7.21375C67.4138 6.91326 67.0528 6.64895 66.7737 6.55688C67.0635 6.57346 67.4792 6.48572 67.9497 6.38641C69.2771 6.1062 71.0407 5.73391 71.6449 7.35313C71.5013 5.62606 73.2026 5.24873 74.5001 4.96097L74.5001 4.96097C74.9951 4.85118 75.4314 4.75443 75.684 4.60075C75.4619 4.81401 75.2391 5.20909 74.9892 5.65231C74.2962 6.88105 73.3946 8.47985 71.722 7.60109C70.51 9.1806 68.9733 8.05529 67.8241 7.21375ZM58.1666 32.2166C58.1497 32.5744 58.016 33.0667 57.8649 33.6236C57.3747 35.4292 56.7004 37.9129 59.2274 38.6857C58.8968 41.2515 61.4189 41.5357 63.2719 41.7446C63.8743 41.8125 64.406 41.8724 64.746 42.0002C64.4576 41.7664 64.1478 41.3112 63.796 40.7943C62.8169 39.3557 61.5123 37.4387 59.4368 38.4846C61.1619 36.9462 59.8864 35.0131 58.9254 33.5565L58.9254 33.5565C58.5817 33.0357 58.2783 32.5758 58.1666 32.2166ZM62.2525 29.9186C62.2535 29.3052 62.2544 28.7559 62.142 28.3946C62.3416 28.6908 62.7341 29.0307 63.1747 29.4122C64.4066 30.479 66.0142 31.8711 64.8311 33.5413C66.4087 32.2599 68.0198 33.6249 69.2668 34.6814C69.7359 35.0789 70.1535 35.4327 70.4985 35.5856C70.117 35.5232 69.5667 35.6002 68.9533 35.6859H68.9533H68.9533H68.9532H68.9532C67.2633 35.9222 65.0949 36.2254 64.6603 33.8664C62.2461 33.8178 62.2497 31.6209 62.2525 29.9186ZM64.9955 23.5645C65.1575 23.8618 65.2671 24.3619 65.3921 24.9325C65.7562 26.5941 66.2514 28.8534 68.5524 28.4412C69.4971 30.5231 71.5208 29.8191 73.1227 29.2618C73.7213 29.0536 74.2609 28.8659 74.6634 28.8516C74.3117 28.7783 73.8451 28.5248 73.3171 28.238C71.8801 27.4573 69.9885 26.4296 68.7232 28.1161C69.5006 26.2102 67.6642 25.188 66.2597 24.4062C65.713 24.1019 65.2317 23.834 64.9955 23.5645ZM68.5505 11.5217L68.5505 11.5216C68.2046 11.1434 67.8959 10.8059 67.6314 10.6398C67.9331 10.7393 68.4098 10.7294 68.9449 10.7183C70.2912 10.6902 72.0074 10.6545 72.238 12.3342C72.3936 10.5902 74.1723 10.536 75.5496 10.494C76.0501 10.4787 76.4977 10.4651 76.7951 10.3725C76.5879 10.5335 76.341 10.836 76.0571 11.1841C75.1405 12.3078 73.8369 13.9059 72.2298 12.7447C70.8085 13.9909 69.5301 12.593 68.5505 11.5217ZM66.3484 19.1982C66.5781 19.481 66.7812 19.9751 67.0101 20.5319C67.66 22.1126 68.5178 24.1991 70.7814 23.3943C72.1396 25.443 74.1771 24.1615 75.6246 23.2511C76.0887 22.9592 76.4922 22.7054 76.7932 22.6118C76.4226 22.6155 75.8988 22.4535 75.3086 22.271C73.7402 21.7859 71.7031 21.1559 70.8283 23.1078C71.3543 20.9471 69.2598 20.2616 67.6929 19.7488C67.1259 19.5632 66.628 19.4003 66.3484 19.1982ZM67.7837 15.8631C67.4414 15.3636 67.1373 14.92 66.8538 14.6902C67.1987 14.8431 67.7478 14.9019 68.3634 14.9678C70.0007 15.1431 72.1082 15.3688 72.0942 17.5473C72.5448 15.3383 74.8703 15.6148 76.5372 15.813C77.0616 15.8753 77.5208 15.9299 77.8359 15.8969C77.5543 16.0504 77.2064 16.3762 76.8078 16.7495C75.5612 17.9171 73.8177 19.5499 72.0473 17.8338C70.0447 19.1615 68.7591 17.2859 67.7837 15.8631Z" fill="#E1F7ED"/></svg>