<svg width="24" height="24" class="" viewBox="0 0 24 24" fill="none" xmlns="http://www.w3.org/2000/svg"><g clip-path="url(#clip0_1486_45236)"><path fill-rule="evenodd" clip-rule="evenodd" d="M4 2C2.34315 2 1 3.34315 1 5V19C1 20.6569 2.34315 22 4 22H19C21.2091 22 23 20.2091 23 18V10C23 7.79086 21.2091 6 19 6C19 3.79086 17.2091 2 15 2H4ZM17 6C17 4.89543 16.1046 4 15 4H4C3.44772 4 3 4.44772 3 5C3 5.55228 3.44772 6 4 6H17ZM21 10C21 8.89543 20.1046 8 19 8H4C3.64936 8 3.31278 7.93985 3 7.82929V19C3 19.5523 3.44772 20 4 20H19C20.1046 20 21 19.1046 21 18V17H16C15.4477 17 15 16.5523 15 16V12C15 11.4477 15.4477 11 16 11H21V10ZM17 15V13H21V15H17Z" fill="#190694"/></g><defs><clipPath id="clip0_1486_45236"><rect width="24" height="24" fill="white"/></clipPath></defs></svg>