<svg width="32" height="32" class="" viewBox="0 0 32 32" fill="none" xmlns="http://www.w3.org/2000/svg"><path d="M9.33333 4.68736C11.2401 3.41099 13.5331 2.66663 16 2.66663C21.4708 2.66663 26.0865 6.32758 27.531 11.3333" stroke="#190694" stroke-width="2" stroke-linecap="round" stroke-linejoin="round"/><path d="M28 29.3333V18.6666" stroke="#190694" stroke-width="2" stroke-linecap="round" stroke-linejoin="round"/><path d="M4 29.3333V14.6666C4 13.2641 4.24062 11.9177 4.68282 10.6666" stroke="#190694" stroke-width="2" stroke-linecap="round" stroke-linejoin="round"/><path d="M24 29.3333V15.0666C24 10.4274 20.4183 6.66663 16 6.66663C11.5817 6.66663 8 10.4274 8 15.0666V18.6666" stroke="#190694" stroke-width="2" stroke-linecap="round" stroke-linejoin="round"/><path d="M8 29.3333V24" stroke="#190694" stroke-width="2" stroke-linecap="round" stroke-linejoin="round"/><path d="M12 29.3333V14.8666C12 12.547 13.7909 10.6666 16 10.6666C17.1537 10.6666 18.1934 11.1795 18.9234 12" stroke="#190694" stroke-width="2" stroke-linecap="round" stroke-linejoin="round"/><path d="M20 29.3333V18.6666" stroke="#190694" stroke-width="2" stroke-linecap="round" stroke-linejoin="round"/><path d="M16 29.3333V24.6666" stroke="#190694" stroke-width="2" stroke-linecap="round" stroke-linejoin="round"/><path d="M16 14.6666V18.6666" stroke="#190694" stroke-width="2" stroke-linecap="round" stroke-linejoin="round"/></svg>