<svg width="122" height="33" viewBox="0 0 122 33" fill="none" xmlns="http://www.w3.org/2000/svg"><path d="M117.487 18.6978C119.5 18.6978 121.087 20.3178 121.087 22.2978C121.087 24.2778 119.5 25.8978 117.487 25.8978C115.474 25.8978 113.887 24.2778 113.887 22.2978C113.887 20.3178 115.474 18.6978 117.487 18.6978ZM117.487 25.2596C119.14 25.2596 120.416 23.9178 120.416 22.2978C120.416 20.6778 119.14 19.3359 117.487 19.3359C115.834 19.3359 114.574 20.6778 114.574 22.2978C114.574 23.9178 115.834 25.2596 117.487 25.2596ZM118.927 21.4141C118.927 22.0359 118.453 22.445 117.831 22.5105L119.14 24.1141H118.273L116.898 22.3959V24.1141H116.194V20.2523H117.651C118.354 20.2523 118.927 20.7268 118.927 21.4141ZM117.7 20.8905H116.898V21.9214H117.7C117.994 21.9214 118.24 21.7087 118.24 21.4141C118.24 21.1196 117.994 20.8905 117.7 20.8905Z" fill="#1D1D1D"/><path d="M20.7969 27.0709L19.0044 25.0018C17.166 25.9293 15.2242 26.3931 13.179 26.3931C10.835 26.3931 8.67485 25.8104 6.69856 24.645C4.72227 23.4797 3.15962 21.8981 2.01062 19.9003C0.861612 17.9025 0.287109 15.7026 0.287109 13.3005C0.287109 10.8985 0.861612 8.69853 2.01062 6.70076C3.15962 4.70299 4.72227 3.12142 6.69856 1.95606C8.67485 0.79069 10.835 0.208008 13.179 0.208008C15.5229 0.208008 17.6831 0.79069 19.6594 1.95606C21.6356 3.12142 23.1983 4.70299 24.3473 6.70076C25.4963 8.69853 26.0708 10.8985 26.0708 13.3005C26.0708 15.108 25.7376 16.8204 25.0712 18.4377C24.4047 20.0311 23.4626 21.4224 22.2446 22.6116L26.1053 27.0709H20.7969ZM13.179 22.2905C14.282 22.2905 15.2931 22.1121 16.2123 21.7554L11.3176 16.1188H16.626L19.5559 19.5079C20.2913 18.6993 20.8543 17.7717 21.245 16.7253C21.6586 15.6551 21.8654 14.5135 21.8654 13.3005C21.8654 11.6357 21.4863 10.1136 20.7279 8.73421C19.9696 7.35479 18.924 6.27267 17.5911 5.48783C16.2583 4.70299 14.7876 4.31057 13.179 4.31057C11.5703 4.31057 10.0996 4.70299 8.76677 5.48783C7.45691 6.27267 6.41131 7.35479 5.62999 8.73421C4.87164 10.1136 4.49247 11.6357 4.49247 13.3005C4.49247 14.9653 4.87164 16.4875 5.62999 17.8669C6.41131 19.2463 7.45691 20.3284 8.76677 21.1132C10.0996 21.8981 11.5703 22.2905 13.179 22.2905Z" fill="#1D1D1D"/><path d="M45.5448 8.34179V25.7866H41.7876V24.0386C41.0292 24.7758 40.179 25.3466 39.2368 25.7509C38.3176 26.1315 37.3409 26.3217 36.3068 26.3217C34.7212 26.3217 33.2505 25.9055 31.8947 25.0731C30.5388 24.2407 29.4588 23.1229 28.6545 21.7197C27.8731 20.2927 27.4825 18.7349 27.4825 17.0464C27.4825 15.3815 27.8731 13.8475 28.6545 12.4444C29.4588 11.0174 30.5388 9.88768 31.8947 9.05528C33.2505 8.22287 34.7212 7.80667 36.3068 7.80667C37.3409 7.80667 38.3176 8.00882 39.2368 8.41314C40.179 8.79366 41.0292 9.35256 41.7876 10.0898V8.34179H45.5448ZM36.6515 22.4332C37.5937 22.4332 38.4555 22.1954 39.2368 21.7197C40.0181 21.2441 40.6386 20.6019 41.0982 19.7933C41.5578 18.9609 41.7876 18.0452 41.7876 17.0464C41.7876 16.0475 41.5578 15.1437 41.0982 14.3351C40.6386 13.5027 40.0181 12.8487 39.2368 12.373C38.4555 11.8973 37.5937 11.6595 36.6515 11.6595C35.7094 11.6595 34.8476 11.8973 34.0663 12.373C33.2849 12.8487 32.6645 13.5027 32.2049 14.3351C31.7453 15.1437 31.5155 16.0475 31.5155 17.0464C31.5155 18.0452 31.7453 18.9609 32.2049 19.7933C32.6645 20.6019 33.2849 21.2441 34.0663 21.7197C34.8476 22.1954 35.7094 22.4332 36.6515 22.4332Z" fill="#1D1D1D"/><path d="M57.4931 7.80667C59.0787 7.80667 60.5494 8.22287 61.9053 9.05528C63.2611 9.88768 64.3297 11.0174 65.111 12.4444C65.9153 13.8475 66.3174 15.3815 66.3174 17.0464C66.3174 18.7349 65.9153 20.2927 65.111 21.7197C64.3297 23.1229 63.2611 24.2407 61.9053 25.0731C60.5494 25.9055 59.0787 26.3217 57.4931 26.3217C56.5279 26.3217 55.5972 26.1433 54.701 25.7866C53.8048 25.4299 53.0005 24.9304 52.2881 24.2883V32.208H48.2551V8.34179H52.0123V10.0898C52.7707 9.35256 53.6094 8.79366 54.5286 8.41314C55.4708 8.00882 56.459 7.80667 57.4931 7.80667ZM57.1484 22.4332C58.0906 22.4332 58.9523 22.1954 59.7336 21.7197C60.515 21.2441 61.1354 20.6019 61.595 19.7933C62.0546 18.9609 62.2844 18.0452 62.2844 17.0464C62.2844 16.0475 62.0546 15.1437 61.595 14.3351C61.1354 13.5027 60.515 12.8487 59.7336 12.373C58.9523 11.8973 58.0906 11.6595 57.1484 11.6595C56.2062 11.6595 55.3444 11.8973 54.5631 12.373C53.7818 12.8487 53.1613 13.5027 52.7017 14.3351C52.2421 15.1437 52.0123 16.0475 52.0123 17.0464C52.0123 18.0452 52.2421 18.9609 52.7017 19.7933C53.1613 20.6019 53.7818 21.2441 54.5631 21.7197C55.3444 22.1954 56.2062 22.4332 57.1484 22.4332Z" fill="#1D1D1D"/><path d="M68.6571 8.34179H72.6901V25.7866H68.6571V8.34179ZM70.6908 5.34513C70.0014 5.34513 69.404 5.1073 68.8984 4.63164C68.4158 4.1322 68.1745 3.52573 68.1745 2.81224C68.1745 2.09875 68.4158 1.50418 68.8984 1.02852C69.404 0.529077 70.0014 0.279356 70.6908 0.279356C71.3802 0.279356 71.9662 0.529077 72.4488 1.02852C72.9544 1.50418 73.2072 2.09875 73.2072 2.81224C73.2072 3.52573 72.9544 4.1322 72.4488 4.63164C71.9662 5.1073 71.3802 5.34513 70.6908 5.34513Z" fill="#1D1D1D"/><path d="M79.4296 12.0876V19.7219C79.4296 20.4592 79.6134 21.0181 79.9811 21.3986C80.3718 21.7792 80.9233 21.9694 81.6357 21.9694H83.4971V25.7866H81.5322C80.3143 25.7866 79.2457 25.5369 78.3265 25.0374C77.4073 24.5142 76.6949 23.8126 76.1894 22.9326C75.6838 22.0289 75.431 21.0181 75.431 19.9003V12.0876V8.34179V0.850146H79.4296V8.34179H83.4971V12.0876H79.4296Z" fill="#1D1D1D"/><path d="M102.344 8.34179V25.7866H98.5866V24.0386C97.8283 24.7758 96.978 25.3466 96.0358 25.7509C95.1166 26.1315 94.14 26.3217 93.1059 26.3217C91.5203 26.3217 90.0495 25.9055 88.6937 25.0731C87.3379 24.2407 86.2578 23.1229 85.4535 21.7197C84.6722 20.2927 84.2815 18.7349 84.2815 17.0464C84.2815 15.3815 84.6722 13.8475 85.4535 12.4444C86.2578 11.0174 87.3379 9.88768 88.6937 9.05528C90.0495 8.22287 91.5203 7.80667 93.1059 7.80667C94.14 7.80667 95.1166 8.00882 96.0358 8.41314C96.978 8.79366 97.8283 9.35256 98.5866 10.0898V8.34179H102.344ZM93.4506 22.4332C94.3928 22.4332 95.2545 22.1954 96.0358 21.7197C96.8172 21.2441 97.4376 20.6019 97.8972 19.7933C98.3568 18.9609 98.5866 18.0452 98.5866 17.0464C98.5866 16.0475 98.3568 15.1437 97.8972 14.3351C97.4376 13.5027 96.8172 12.8487 96.0358 12.373C95.2545 11.8973 94.3928 11.6595 93.4506 11.6595C92.5084 11.6595 91.6466 11.8973 90.8653 12.373C90.084 12.8487 89.4635 13.5027 89.0039 14.3351C88.5443 15.1437 88.3145 16.0475 88.3145 17.0464C88.3145 18.0452 88.5443 18.9609 89.0039 19.7933C89.4635 20.6019 90.084 21.2441 90.8653 21.7197C91.6466 22.1954 92.5084 22.4332 93.4506 22.4332Z" fill="#1D1D1D"/><path d="M105.054 0.847917H109.087V25.7866H105.054V0.847917Z" fill="#1D1D1D"/></svg>