<svg width="25" height="37" viewBox="0 0 25 37" fill="none" xmlns="http://www.w3.org/2000/svg" class="mr-12px"><g clip-path="url(#clip0_634_2464)"><path d="M23.559 24.8149C23.1417 25.7859 22.6411 26.6734 22.0721 27.4927C21.2908 28.6078 20.646 29.3816 20.1529 29.814C19.3867 30.5195 18.5674 30.876 17.6875 30.8988C17.0578 30.8988 16.2992 30.7167 15.4117 30.3526C14.5241 29.9885 13.7048 29.814 12.9614 29.814C12.1801 29.814 11.338 29.9961 10.4429 30.3526C9.54017 30.7167 8.81951 30.9064 8.26574 30.9215C7.4237 30.9595 6.58166 30.5878 5.74721 29.8064C5.20861 29.3361 4.54105 28.5396 3.74452 27.4093C2.88731 26.1955 2.17424 24.7997 1.62046 23.1991C1.02876 21.4695 0.73291 19.8006 0.73291 18.1772C0.73291 16.3186 1.13496 14.718 1.93907 13.3829C2.56871 12.3057 3.41074 11.456 4.4576 10.834C5.51205 10.2119 6.64235 9.89334 7.86368 9.87058C8.53125 9.87058 9.41121 10.0754 10.5036 10.485C11.5884 10.8947 12.2863 11.0995 12.5973 11.0995C12.8249 11.0995 13.5986 10.8568 14.9186 10.3713C16.1627 9.92368 17.2095 9.74162 18.0743 9.80989C20.4032 9.99954 22.1556 10.9174 23.3162 12.5712C21.2301 13.8304 20.206 15.598 20.2212 17.8662C20.2363 19.6337 20.8811 21.1053 22.1404 22.2736C22.7093 22.8122 23.3466 23.237 24.0596 23.5328C23.8928 23.9804 23.7334 24.4052 23.559 24.8149ZM18.2185 3.79425C18.2185 5.18248 17.7102 6.47209 16.7013 7.67066C15.4875 9.09682 14.0159 9.9161 12.4152 9.78714C12.3925 9.62025 12.3849 9.44577 12.3849 9.26371C12.3849 7.93617 12.9614 6.51001 13.9931 5.34937C14.509 4.75766 15.1613 4.27217 15.9503 3.8777C16.7392 3.49081 17.4902 3.27841 18.1881 3.24048C18.2033 3.42254 18.2185 3.61219 18.2185 3.79425Z" fill="white"/></g><defs><clipPath id="clip0_634_2464"><rect width="23.3267" height="27.6833" fill="white" transform="translate(0.73291 3.23779)"/></clipPath></defs></svg>