<svg width="32" height="33" class="" viewBox="0 0 32 33" fill="none" xmlns="http://www.w3.org/2000/svg"><g clip-path="url(#clip0_397_7720)"><path d="M27.9503 0.958008H3.72668C2.01153 0.958008 0.621094 2.35713 0.621094 4.08301V28.458C0.621094 30.1839 2.01153 31.583 3.72668 31.583H27.9503C29.6654 31.583 31.0559 30.1839 31.0559 28.458V4.08301C31.0559 2.35713 29.6654 0.958008 27.9503 0.958008ZM10.0587 25.7522H5.97234V12.5238H10.0587V25.7522ZM7.98861 10.9006C6.69817 10.9006 5.86482 9.98095 5.86482 8.8447C5.86482 7.68151 6.72513 6.7887 8.0424 6.7887C9.35966 6.7887 10.1662 7.68145 10.1931 8.8447C10.1931 9.98095 9.35966 10.9006 7.98861 10.9006ZM25.8121 25.7522H21.7258V18.4211C21.7258 16.7168 21.1344 15.5536 19.6558 15.5536C18.5266 15.5536 17.8545 16.3381 17.5588 17.0956C17.4512 17.3661 17.4243 17.7448 17.4243 18.1235V25.7522H13.338V16.7438C13.338 15.0937 13.2843 13.714 13.2305 12.5238H16.7792L16.9673 14.3634H17.048C17.5857 13.4977 18.903 12.2263 21.1074 12.2263C23.7958 12.2263 25.8121 14.0388 25.8121 17.9342V25.7522Z" fill="#FFFFFF"/></g><defs><clipPath id="clip0_397_7720"><rect width="31.8012" height="32" fill="#FFFFFF" transform="translate(0 0.208008)"/></clipPath></defs></svg>