<svg width="25" height="28" viewBox="0 0 25 28" fill="none" xmlns="http://www.w3.org/2000/svg" class="mr-7px"><path fill-rule="evenodd" clip-rule="evenodd" d="M1.11596 1.07361C0.816512 1.39629 0.643555 1.88935 0.643555 2.53471V25.4245C0.643555 26.0699 0.816512 26.5629 1.12629 26.8727L1.20631 26.9424L14.031 14.1177V13.8312L1.19599 1.00391L1.11596 1.07361Z" fill="url(#paint0_linear_634_975)"/><path fill-rule="evenodd" clip-rule="evenodd" d="M18.2985 18.4044L14.021 14.127V13.8275L18.2985 9.55005L18.3914 9.60684L23.4511 12.4826C24.8993 13.2983 24.8993 14.6458 23.4511 15.4719L18.3914 18.3477L18.2985 18.4044Z" fill="url(#paint1_linear_634_975)"/><path fill-rule="evenodd" clip-rule="evenodd" d="M18.3908 18.3494L14.0204 13.979L1.11572 26.8837C1.58813 27.3897 2.38064 27.4465 3.26608 26.9534L18.3908 18.3494Z" fill="url(#paint2_linear_634_975)"/><path fill-rule="evenodd" clip-rule="evenodd" d="M18.3908 9.60792L3.26608 1.01683C2.38064 0.510864 1.58555 0.580563 1.11572 1.08653L14.0204 13.9783L18.3908 9.60792Z" fill="url(#paint3_linear_634_975)"/><path opacity="0.2" fill-rule="evenodd" clip-rule="evenodd" d="M18.2978 18.2568L3.27633 26.7911C2.43736 27.2739 1.68873 27.2403 1.206 26.8015L1.12598 26.8815L1.206 26.9512C1.68873 27.3875 2.43736 27.4236 3.27633 26.9409L18.4011 18.3498L18.2978 18.2568Z" fill="black"/><path opacity="0.12" fill-rule="evenodd" clip-rule="evenodd" d="M23.4502 15.3239L18.2847 18.2565L18.3776 18.3494L23.4373 15.4737C24.1626 15.0606 24.5189 14.5185 24.5189 13.979C24.475 14.4746 24.1059 14.9445 23.4502 15.3239Z" fill="black"/><path opacity="0.25" fill-rule="evenodd" clip-rule="evenodd" d="M3.26632 1.16642L23.4507 12.6333C24.1064 13.0024 24.4756 13.4851 24.5324 13.9782C24.5324 13.4387 24.1761 12.8966 23.4507 12.4835L3.26632 1.0167C1.81812 0.188052 0.643555 0.879883 0.643555 2.5346V2.68432C0.643555 1.02703 1.81812 0.348103 3.26632 1.16642Z" fill="black"/><defs><linearGradient id="paint0_linear_634_975" x1="12.8806" y1="2.28775" x2="-7.66228" y2="7.76144" gradientUnits="userSpaceOnUse"><stop stop-color="#00A0FF"/><stop offset="0.00657" stop-color="#00A1FF"/><stop offset="0.2601" stop-color="#00BEFF"/><stop offset="0.5122" stop-color="#00D2FF"/><stop offset="0.7604" stop-color="#00DFFF"/><stop offset="1" stop-color="#00E3FF"/></linearGradient><linearGradient id="paint1_linear_634_975" x1="25.3396" y1="13.9773" x2="0.291903" y2="13.9773" gradientUnits="userSpaceOnUse"><stop stop-color="#FFE000"/><stop offset="0.4087" stop-color="#FFBD00"/><stop offset="0.7754" stop-color="#FFA500"/><stop offset="1" stop-color="#FF9C00"/></linearGradient><linearGradient id="paint2_linear_634_975" x1="16.0144" y1="16.3571" x2="-0.477377" y2="44.1141" gradientUnits="userSpaceOnUse"><stop stop-color="#FF3A44"/><stop offset="1" stop-color="#C31162"/></linearGradient><linearGradient id="paint3_linear_634_975" x1="-2.13382" y1="-6.53988" x2="5.22381" y2="5.85682" gradientUnits="userSpaceOnUse"><stop stop-color="#32A071"/><stop offset="0.0685" stop-color="#2DA771"/><stop offset="0.4762" stop-color="#15CF74"/><stop offset="0.8009" stop-color="#06E775"/><stop offset="1" stop-color="#00F076"/></linearGradient></defs></svg>