<svg width="24" height="24" class="" viewBox="0 0 24 24" fill="none" xmlns="http://www.w3.org/2000/svg"><path d="M2 2H4V4H2V2Z" fill="#190694"/><path d="M2 6H4V8H2V6Z" fill="#190694"/><path d="M4 10H2V12H4V10Z" fill="#190694"/><path d="M22 20H20V22H22V20Z" fill="#190694"/><path d="M16 20H18V22H16V20Z" fill="#190694"/><path d="M14 20H12V22H14V20Z" fill="#190694"/><path d="M18.7751 10.8371L20.9487 4.31629L19.0513 3.68384L17.2249 9.16306L13.413 10.116L10.6325 13.8235L7.59165 12.8098L3.16797 19.4454L4.83207 20.5548L8.40839 15.1903L11.3676 16.1767L14.587 11.8841L18.7751 10.8371Z" fill="#190694"/></svg>