<svg width="24" height="24" class="" viewBox="0 0 24 24" fill="none" xmlns="http://www.w3.org/2000/svg"><path fill-rule="evenodd" clip-rule="evenodd" d="M13 6C13 8.20914 11.2091 10 9 10C6.79086 10 5 8.20914 5 6C5 3.79086 6.79086 2 9 2C11.2091 2 13 3.79086 13 6ZM11 6C11 7.10457 10.1046 8 9 8C7.89543 8 7 7.10457 7 6C7 4.89543 7.89543 4 9 4C10.1046 4 11 4.89543 11 6Z" fill="#190694"/><path d="M4.66258 16.0921C4.79491 14.9011 5.80163 14 6.99999 14H11C12.1983 14 13.2051 14.9011 13.3374 16.0921L14.0061 22.1104L15.9939 21.8896L15.3252 15.8712C15.0803 13.6673 13.2174 12 11 12H6.99999C4.78253 12 2.91969 13.6673 2.67481 15.8712L2.0061 21.8896L3.99387 22.1104L4.66258 16.0921Z" fill="#190694"/><path d="M17 12C19.2175 12 21.0803 13.6673 21.3252 15.8712L21.9939 21.8896L20.0061 22.1104L19.3374 16.0921C19.2051 14.9011 18.1984 14 17 14V12Z" fill="#190694"/><path d="M15 4C16.1046 4 17 4.89543 17 6C17 7.10457 16.1046 8 15 8V10C17.2091 10 19 8.20914 19 6C19 3.79086 17.2091 2 15 2V4Z" fill="#190694"/></svg>